/* XPM */
static char *ff35cca2599d4bb3a601c64810600aa4ns0pOrMW1o1R2nin[] = {
/* columns rows colors chars-per-pixel */
"40 40 173 2 ",
"   c None",
".  c #261F00",
"X  c #291F00",
"o  c #3D1F1B",
"O  c #381F15",
"+  c #2C2101",
"@  c #262100",
"#  c #312502",
"$  c #3C2E01",
"%  c #372902",
"&  c #3B2213",
"*  c #431E1E",
"=  c #432B0D",
"-  c #482F0F",
";  c #413002",
":  c #4D3C00",
">  c #503D01",
",  c #48271D",
"<  c #573817",
"1  c #5A3816",
"2  c #5A371A",
"3  c #5A3919",
"4  c #563515",
"5  c #62371D",
"6  c #61381D",
"7  c #431E20",
"8  c #442F22",
"9  c #562C28",
"0  c #4C332E",
"q  c #573B2F",
"w  c #55313C",
"e  c #61332D",
"r  c #68332F",
"t  c #603420",
"y  c #66283A",
"u  c #703332",
"i  c #634623",
"p  c #66462D",
"a  c #664828",
"s  c #68492B",
"d  c #6B4A30",
"f  c #6F4235",
"g  c #75433F",
"h  c #430840",
"j  c #4C0949",
"k  c #490846",
"l  c #52094E",
"z  c #530950",
"x  c #600A5C",
"c  c #601C56",
"v  c #7A1A5C",
"b  c #6A2D43",
"n  c #6D2B4D",
"m  c #6E2952",
"M  c #6F2756",
"N  c #712956",
"B  c #752A5B",
"V  c #72275A",
"C  c #660B62",
"Z  c #730C6F",
"A  c #750C70",
"S  c #7A0D75",
"D  c #7F0E7A",
"F  c #7C246F",
"G  c #772564",
"H  c #76396B",
"J  c #7F2474",
"K  c #774F4F",
"L  c #85166C",
"P  c #86186C",
"I  c #800E7B",
"U  c #851B77",
"Y  c #96157E",
"T  c #9B256C",
"R  c #9D2574",
"E  c #9E237A",
"W  c #A12577",
"Q  c #A4267C",
"!  c #864C78",
"~  c #9E487F",
"^  c #92417D",
"/  c #865379",
"(  c #9B647F",
")  c #860E81",
"_  c #8D0C87",
"`  c #900D8A",
"'  c #8E1189",
"]  c #851B8A",
"[  c #881487",
"{  c #91138A",
"}  c #961A89",
"|  c #941980",
" . c #8B1797",
".. c #8B1996",
"X. c #8C1799",
"o. c #8D189A",
"O. c #9A1395",
"+. c #9E1499",
"@. c #981A93",
"#. c #A1149C",
"$. c #8F2697",
"%. c #902A93",
"&. c #A72281",
"*. c #A82380",
"=. c #AB2586",
"-. c #AB12A5",
";. c #AE13A8",
":. c #BA19A3",
">. c #B512AD",
",. c #B912B2",
"<. c #9423A1",
"1. c #9828A4",
"2. c #AC24A7",
"3. c #A533A0",
"4. c #C80FBD",
"5. c #CA11BE",
"6. c #C314B4",
"7. c #D217BC",
"8. c #8C5883",
"9. c #945D8D",
"0. c #9A5D81",
"q. c #9D6683",
"w. c #A26789",
"e. c #A3688B",
"r. c #A66990",
"t. c #B34DBE",
"y. c #BC58B7",
"u. c #A868A5",
"i. c #C350BF",
"p. c #CD0FC6",
"a. c #CF0FC8",
"s. c #D30ECC",
"d. c #DB11CA",
"f. c #E10FCE",
"g. c #E10CD5",
"h. c #E80FD7",
"j. c #E40CDB",
"k. c #E410D3",
"l. c #E710D8",
"z. c #E63FD9",
"x. c #EF09E6",
"c. c #F40AEB",
"v. c #F009E6",
"b. c #F413EB",
"n. c #FF06F6",
"m. c #FE09F4",
"M. c #FF07F9",
"N. c #FF08F9",
"B. c #FB18F2",
"V. c #FC14F4",
"C. c #B54DC1",
"Z. c #CC46C7",
"A. c #C959C5",
"S. c #C551C1",
"D. c #E549DD",
"F. c #CB7BCF",
"G. c #C876C9",
"H. c #CE7ED2",
"J. c #D17FD7",
"K. c #D276DC",
"L. c #D37DDB",
"P. c #F646EF",
"I. c #D67CE0",
"U. c #E56FE0",
"Y. c #ED7DE8",
"T. c #D381D7",
"R. c #D381D8",
"E. c #DE86E7",
"W. c #DF87E8",
"Q. c #E189EB",
"!. c #E286E5",
"~. c #EB92E7",
"^. c #ED92E9",
/* pixels */
"                                                                                ",
"                                                                                ",
"                                                                                ",
"                                    W.L.1.X.X.X.X.                              ",
"                                    T.G.$.] ] ] ]                               ",
"                              E.W.r.s p , o , 2 e ] X.                          ",
"                              Q.Q.w.: : # + $ > 3 ] o.o.                        ",
"                              e.w.K ; $ # + % ; - m V F                         ",
"                          W.H.i : ; + + + + + + # : > n X.X.                    ",
"                          I.G.i > ; + + + + + + # : > n o.X.                    ",
"                          1.%.3 > ; + + + + + + # : > n o.X.                    ",
"                           .] < > ; + + + + + + # : : n o.X.                    ",
"                          X.] n b 9 $ = v L y $ = y b G X.o.                    ",
"                              o.o.V > 5 k.N.*.: 2 ] o.X.                        ",
"                              <.<.B : 5 k.N.*.: 2 ] X.X.                        ",
"                              K.K.0.: 5 k.N.*.: 2 ] X.X.                        ",
"                              Q.Q.w.: 6 k.N.Q : < ] o.o.                        ",
"                            T.w.( ~ W &.5.s.:.W R B m F                         ",
"                          W.H.i : T M.c.;.+.a.N.l.5 : n o.o.                    ",
"                          T.G.f 1 Q V.b.;.+.p.c.k.u 1 N ] ..                    ",
"                    W.Q.w.a g 7.f.z.Y.U.2.#.-.;.,.d.k.E 2 e ] X.                ",
"                    Q.Q.q.: 5 h.n.P.~.!.2.#.#.+.;.c.M.&.: < ] o.                ",
"                    9.8.^ R =.D.P.D.A.i.@.' O.#.-.p.s.:.R R B N J               ",
"                E.J.0 . L n.B.Y.~.A.#.+.I S ' #.#.#.+.p.N.l.5 : N o...          ",
"                E.J.0 + P m.B.Y.~.A.O.O.S Z ) +.+.#.#.p.m.l.t : M o...          ",
"                E.R.p : T n.B.Y.^.y.D S z j C I ) +.#.p.m.g., + c X...          ",
"                E.R.d : T n.B.Y.^.y.S A j h x S I O.+.p.m.g.* + c X...          ",
"                E.R.d : T m.b.Z.S.3.S A j h x S ) 4.a.j.m.g.* + c X...          ",
"                E.R.d : T m.c.;.#.{ S A j h x S _ v.m.m.m.g.* + c X...          ",
"                E.R.d : T m.c.;.#.{ D S l k C D ` x.m.m.m.g.* + c X...          ",
"                E.R.d : T m.c.;.#.+.O.O.S Z ) O.-.c.m.m.m.g.* + c X...          ",
"                E.R.d : T N.c.;.+.#.#.+.I S ' #.;.c.m.m.N.j.7 + c X. .          ",
"                E.R.q $ y *.=.5.p.,.#.+.{ ' ;.p.s.c.m.4.Y P & + H C.t.          ",
"                E.J.0 X $ : 6 l.N.s.#.#.#.#.s.m.m.m.N.| @ + + X 8.Q.E.          ",
"                W.J.w O , < r 7.h.6.} } { { ,.g.g.g.g.| 8 8 8 8 9.Q.E.          ",
"                    ] ] ] ] U r 5 2 < 4 & O o * * * * ! H.F.F.F.H.              ",
"                    X.X.X.X.] < : > > : + + + + + + . / Q.W.W.W.                ",
"                            ..B N N N B / 8.8.8.8.8.8.u.                        ",
"                              X.o.o.X.<.L.Q.Q.Q.Q.Q.Q.Q.                        ",
"                              X.X.X.X.<.K.E.E.E.E.E.E.                          "
};
