/* XPM */
static char *e2404863df724cf7d40289357b518a5eX4OaSXX2LOfnN7WN[] = {
/* columns rows colors chars-per-pixel */
"30 40 184 2 ",
"   c #0C040F",
".  c #0A0A0C",
"X  c #0D110E",
"o  c #070711",
"O  c #0C0614",
"+  c #070915",
"@  c #0C0C15",
"#  c #0B061A",
"$  c #070D1B",
"%  c #0D0B1B",
"&  c #110415",
"*  c #120C15",
"=  c #180E16",
"-  c #110618",
";  c #120C1C",
":  c #19081B",
">  c #0E1015",
",  c #0D121D",
"<  c #131215",
"1  c #13121C",
"2  c #1B131B",
"3  c #151A1E",
"4  c #1A1A18",
"5  c #20151D",
"6  c #0E0C22",
"7  c #130522",
"8  c #180427",
"9  c #130D22",
"0  c #1A0C23",
"q  c #13052D",
"w  c #1A032C",
"e  c #140B2D",
"r  c #1A0D2D",
"t  c #0E1122",
"y  c #151223",
"u  c #1A1424",
"i  c #1B1925",
"p  c #161329",
"a  c #1B142A",
"s  c #1C1A2A",
"d  c #150135",
"f  c #1A0434",
"g  c #170D30",
"h  c #1A0B31",
"j  c #16023A",
"k  c #1B053D",
"l  c #1E1031",
"z  c #1C1C36",
"x  c #211C23",
"c  c #23142C",
"v  c #261C2A",
"b  c #21063D",
"n  c #220A3C",
"m  c #240B35",
"M  c #211C31",
"N  c #291B3C",
"B  c #22202D",
"V  c #212032",
"C  c #170243",
"Z  c #1A0443",
"A  c #1E0941",
"S  c #210542",
"D  c #240C44",
"F  c #24094C",
"G  c #2B144C",
"H  c #250D54",
"J  c #280B5D",
"K  c #271056",
"L  c #291550",
"P  c #250663",
"I  c #2B0366",
"U  c #270961",
"Y  c #2A0960",
"T  c #2E046E",
"R  c #2F096E",
"E  c #300767",
"W  c #300C6E",
"Q  c #2B0472",
"!  c #310773",
"~  c #320974",
"^  c #310679",
"/  c #330C7C",
"(  c #390E79",
")  c #3D1375",
"_  c #3A157B",
"`  c #3E1C7D",
"'  c #390486",
"]  c #3F078C",
"[  c #3C0C8A",
"{  c #3B1282",
"}  c #3B0694",
"|  c #3E0C91",
" . c #3D009E",
".. c #3F00AB",
"X. c #3B05A3",
"o. c #41098E",
"O. c #440D94",
"+. c #440D9F",
"@. c #411590",
"#. c #491297",
"$. c #4F1D96",
"%. c #461099",
"&. c #4B149A",
"*. c #4E1B9E",
"=. c #51199E",
"-. c #51219D",
";. c #4202A4",
":. c #440CA5",
">. c #480EA1",
",. c #4500AB",
"<. c #4901AD",
"1. c #4C08AB",
"2. c #4711A5",
"3. c #4912A6",
"4. c #4C1FA0",
"5. c #4B13AB",
"6. c #5017A6",
"7. c #531CA2",
"8. c #5318AE",
"9. c #4700B1",
"0. c #4501B2",
"q. c #4800B0",
"w. c #4C00B4",
"e. c #4C02B3",
"r. c #4E09B4",
"t. c #4D03BA",
"y. c #4F09BA",
"u. c #5103B5",
"i. c #5209B7",
"p. c #5204B8",
"a. c #5305B9",
"s. c #550ABC",
"d. c #590BBE",
"f. c #5210B0",
"g. c #5119B0",
"h. c #5419B3",
"j. c #511AB6",
"k. c #5210B8",
"l. c #5712BA",
"z. c #5714BB",
"x. c #5814B9",
"c. c #5B13BF",
"v. c #5C26B1",
"b. c #5725B8",
"n. c #5D21BF",
"m. c #6039A4",
"M. c #652DB5",
"N. c #6121BE",
"B. c #6034B0",
"V. c #6931B8",
"C. c #5600C1",
"Z. c #550EC2",
"A. c #5C0DC2",
"S. c #5511C6",
"D. c #5D13C4",
"F. c #5F1AC3",
"G. c #5E1BC4",
"H. c #5D13CA",
"J. c #610EC3",
"K. c #6114C5",
"L. c #631CC5",
"P. c #6315CA",
"I. c #661CCB",
"U. c #651ACF",
"Y. c #651ACC",
"T. c #691BCE",
"R. c #6715D3",
"E. c #631DD0",
"W. c #6B1ED2",
"Q. c #731FD5",
"!. c #5F27C0",
"~. c #6427C0",
"^. c #6220CC",
"/. c #6722CB",
"(. c #6B33CA",
"). c #703EC5",
"_. c #6B21D4",
"`. c #7023D6",
"'. c #7525DB",
"]. c #752ADB",
"[. c #782DDF",
"{. c #6F36D1",
"}. c #7927E1",
"|. c #7A2DE1",
/* pixels */
"e e % $ $ $ % ; ; < @ @ 1 % @ < % 1 % , > > o % % < y y ; * ",
"N a % 1 y , % ; u v i 3 1 y ; % 1 i s u 1 3 y 1 % < u u u 1 ",
"0 ; . X 3 , % 9 - : % % $ p 9 # 6 6 p 9 # 6 y % $ % 1 1 1 ; ",
"& = < . > % ; 0 : - @ y % 9 ; ; u # ; 9 9 9 y ; ; % % @ % ; ",
": 2 4 X < ; a c 0 : 2 x < * < 2 5 = * * c 0 ; = u 3 < > y s ",
": O < < 1 # f k f w w h h h w 8 8 w 8 8 n f 7 9 9 1 > @ ; p ",
"=   1 * 9 q J R ( ! Q Q / Q Q ! ( ~ T ! ~ ~ Y H d 9 % @ @ % ",
"= * i % 9 L m.).6.>.5.5.j.X.j.{.(.g.:.8.3.&.@.` Z g y 1 1 y ",
"; u y 9 g Z -.h.;.x.l.k.^.,.r.l.z.1.F.l.f.~.} { Z l p y y 1 ",
"y y % 6 q C | ,.I.A.;.q.9.U.p.,.e.Y.t.w. .1.!.[ j 7 9 y 1 % ",
"i y $ p r F &.c.s.<.d.A.A.w.P.A.p.H.t.t.T.u.,.7.S 7 a s 1 * ",
"y y $ y 9 S %.i.A.u.u.'.R.q.J.u.A.P.9.C.'.U.9.O.S : y y < @ ",
"% @ % % 0 b O.<.W.J.u.W.P.q.d.a.e.U.R.t.}.A.9.&.j : % @ % 1 ",
"@ < s 1 u b 7.I.e.Q.T.D..._.D.D.Y.q.'.P.P.w.D.*.k u ; o 3 i ",
"% < i ; O d %.E.P.q.i.y.E.Z.,.e./.L.;.A.w.K.D.[ S u > @ , y ",
"% o % y : S O.Z.P.s.s.i.S.0.0.<.c.i.c.d.p.K.,.' k @ @ > + % ",
"% 1 y ; u D V.].d.w.s.s.Z...D.].[.w.p.a.p.d.,.#.k u y @ i a ",
"% u y % ; k 7.c.,.K.P.w.U.s.w.A.A.w.D.D.s.Y.<.#.k y y % y 9 ",
"1 y % % % j O.e.I.s.,.<.t.D.u.<.w.W.s.,.w.<.c.O.j % y 9 9 9 ",
"s y ; y u A %.s.d.,.w.U.9.y.U.d.D.w.<.r.D.r.s.&.j ; u s a 9 ",
"u ; 9 % u k %.i.d.<.p.'._...d.s.s.A.q.r.].I.,.%.j % ; y 9 9 ",
"% % u O 9 k &.r.I.K.w.W.P.y.p.a.w.W.P.e.].i.p.&.k % % % % y ",
"% ; s y u D 7.K.<.W.R.U.9.H.P.D.U.,.`.Y.Y.e.K.=.A i ; ; y M ",
"; @ y y ; j O.T.U.q.u.e.H.D.w.<.W.U.<.p.q.D.D.' j i ; % 9 a ",
"% @ ; ; ; d #.d.D.i.A.w.H.9.q.u.A.K.p.d.s.D.,.] j % % % % 9 ",
"% y u ; u G M.].r.s.d.s.H.,.d.].|.p.e.i.p.d.<.#.k y y 9 y a ",
"@ 1 y # ; A 7.D.i.d.a.s.H.s.p.K.A.u._.s.d.I.<.o.j y y 9 y y ",
"i 1 ; ; ; d O.e.Y.i.u.<.t.H.p.e.p.P.p.,.q.<.L.O.j y y y 9 9 ",
"B 1 ; y s A &.c.Z.<.u.D.s.y.D.d.A.p.,.i.Y.p.i.%.k y y a a 9 ",
"1 % ; % u A %.r.D.q.e.|.W.,.D.a.s.T.<.r.|.D.e.&.k y ; y y 9 ",
"@ ; y % ; k O.q.W.D.u.`.D.w.A.a.q.K.U.<._.D.,.&.j ; % # ; 9 ",
"@ < u 9 9 A =.N.;.F.I.K.,.G.c.c.L.,.L.L.F.,.N.$.A a 1 @ ; s ",
"@ > y p q C _ B.v.2.5.;.!.3.+.O.M.v.>.5.:.b.4.W k 0 < * @ 3 ",
"> . % y q k H Y _ Q / ^ { ! T I E ) T ^ / / P K f 0 * . @ % ",
"@ i 1 % a r q n f d b b w w w 8 m f f b b f f r 7 u = * u i ",
"@ s y O 1 ; - c 0 0 a u : 2 = = v 0 : u u : u ; ; u u 9 a y ",
"a % ; y @ ; ; O 9 u 9 # ; ; @ $ # p y % 3 @ @ % # 9 p p 9 ; ",
"M 9 ; u < * = * s s u $ a y $ 6 6 z V y 3 < i 1 % 6 p a 9 ; ",
"y y % @ 1 @ . 3 1 < y $ , , $ $ p t t % + $ i @ ; y y 9 ; ; ",
"% % @ % 1 < . . @ . , , $ , , $ $ % + $ y % % 1 @ ; % O y ; "
};
