/* XPM */
static char *ac1a97a3c7004298987c12e131f2cd5eeBux9838ZkU7Gqhc[] = {
/* columns rows colors chars-per-pixel */
"40 40 145 2 ",
"   c None",
".  c #3B2C23",
"X  c #4B382C",
"o  c #433537",
"O  c #443537",
"+  c #433638",
"@  c #443638",
"#  c #794F33",
"$  c #7A5033",
"%  c #7A5034",
"&  c #7B5134",
"*  c #7C5235",
"=  c #7D5336",
"-  c #3A3E63",
";  c #3B3E64",
":  c #35427B",
">  c #36427B",
",  c #35437C",
"<  c #35437D",
"1  c #36437C",
"2  c #05696A",
"3  c #524043",
"4  c #524143",
"5  c #5B4649",
"6  c #5A474A",
"7  c #5B474A",
"8  c #735643",
"9  c #775945",
"0  c #474B79",
"q  c #49756A",
"w  c #45777E",
"e  c #805538",
"r  c #825739",
"t  c #84593B",
"y  c #85593B",
"u  c #865B3D",
"i  c #875C3E",
"p  c #885C3E",
"a  c #81614B",
"s  c #966849",
"d  c #9B6C4D",
"f  c #9D6E4E",
"g  c #9E6F4F",
"h  c #9E704F",
"j  c #9F7050",
"k  c #9B745A",
"l  c #A67655",
"z  c #A77756",
"x  c #A57B60",
"c  c #B48260",
"v  c #B58361",
"b  c #BC8966",
"n  c #BD8967",
"m  c #BA8C6C",
"M  c #BF9172",
"N  c #C09172",
"B  c #C09272",
"V  c #C99470",
"C  c #CC9976",
"Z  c #D39D78",
"A  c #D39E7A",
"S  c #D49E79",
"D  c #D59E79",
"F  c #D8A17C",
"G  c #176E82",
"H  c #196E82",
"J  c #1C738C",
"K  c #307991",
"L  c #4E5284",
"P  c #4F5285",
"I  c #415196",
"U  c #415197",
"Y  c #4758A5",
"T  c #4759A6",
"R  c #4759A7",
"E  c #4859A4",
"W  c #4859A5",
"Q  c #098383",
"!  c #098787",
"~  c #0A8787",
"^  c #068A8B",
"/  c #068B8B",
"(  c #078C8B",
")  c #068C8C",
"_  c #098C8B",
"`  c #098C8C",
"'  c #078F90",
"]  c #0A9696",
"[  c #0C9F9F",
"{  c #23908A",
"}  c #239A96",
"|  c #0CA0A0",
" . c #0DA0A0",
".. c #0BAAAA",
"X. c #0AAAAB",
"o. c #0DAAAA",
"O. c #0DAEAE",
"+. c #0CAFAF",
"@. c #0DAFAF",
"#. c #0EAEAE",
"$. c #0EAFAF",
"%. c #16ABA9",
"&. c #0AAFB0",
"*. c #0CB0B0",
"=. c #0EB0B0",
"-. c #26A9A5",
";. c #27AEA9",
":. c #4A8E82",
">. c #4D9589",
",. c #559284",
"<. c #569284",
"1. c #4DA196",
"2. c #4DA499",
"3. c #99898E",
"4. c #949C83",
"5. c #AA8C8E",
"6. c #AB8C8E",
"7. c #95A58C",
"8. c #95AA91",
"9. c #95AA92",
"0. c #9BAA90",
"q. c #BDA282",
"w. c #C79B87",
"e. c #C8A582",
"r. c #C6A886",
"t. c #C6A887",
"y. c #DEA781",
"u. c #DFA781",
"i. c #DFA782",
"p. c #D3A884",
"a. c #DFA882",
"s. c #E0A781",
"d. c #E1A781",
"f. c #E3A781",
"g. c #E0A881",
"h. c #E1A881",
"j. c #E2A881",
"k. c #E3A881",
"l. c #E2A981",
"z. c #E0A882",
"x. c #E1A882",
"c. c #E1A983",
"v. c #E2A983",
"b. c #E2AA83",
"n. c #E4A981",
/* pixels */
"                                                                                ",
"                                                                                ",
"                                                                                ",
"                            * * * * * * * * * * * * * * * *                     ",
"                          * * * * * * * * * * * * * * * * *                     ",
"                        * * * * * * * * * * * * * * * * * * * *                 ",
"                        * * * * * * * * * * * * * * * * * * * *                 ",
"                        * * * * * * * * * * * * * * * * * * * *                 ",
"                        * * * * & & & & & * * * * * * * * * * *                 ",
"                        * * * & r i p u * & * * * * * * * * * *                 ",
"                        * * * $ d Z D V t # $ $ $ $ $ $ $ $ $ & &               ",
"                        & & & $ j c.c.F z h j j j j j j j j j s *               ",
"                        * * * $ j u.c.u.u.u.u.u.u.u.u.u.u.u.u.u.                ",
"                        n n c r h u.c.c.c.m 9 m c.c.c.u.k a Z c.                ",
"                        c.c.D u g u.c.c.c.x . x c.c.c.u.8 X C c.                ",
"                        c.c.Z t g u.c.c.c.x . x c.c.c.u.8 X C c.                ",
"                        c.c.F z c u.c.c.c.m 9 m c.c.c.u.k a Z c.                ",
"                        c.c.u.u.u.c.c.c.c.u.u.u.c.c.c.a.u.u.u.c.                ",
"                        c.c.c.c.c.c.c.c.c.c.c.c.c.c.c.c.c.c.c.c.                ",
"                        c.c.c.c.c.c.c.c.c.c.c.c.c.c.c.c.c.c.c.c.                ",
"                          a.f.f.f.f.f.f.f.f.f.f.f.f.c.c.c.u.                    ",
"                            p.0.8.8.8.8.8.8.8.8.8.8.7.4.q.c.                    ",
"                              #.#.#.#.#.#.#.#.#.#.#.| !                         ",
"                              #.#.#.#.#.#.#.#.#.#.#.| !                         ",
"                              o.o.o.o.o.#.#.#.#.#.#.[ Q                         ",
"                              ^ ^ ^ ^ ' o.#.#.#.#.=.] 2                         ",
"                              <.<.<.<.>.%.#.#.#.#.=.} q                         ",
"                              u.u.u.f.t.;.#.#.#.#.&.2.M                         ",
"                              c.c.c.f.t.;.#.#.#.#.&.2.N                         ",
"                              c.c.c.f.t.-.X.o.o.o.X.1.N                         ",
"                              u.c.c.n.e.{ ( _ ` ` ) :.N                         ",
"                              c.w.6.6.3.K J H H H G w M                         ",
"                                  W W W W I 1 1 1 1 1                           ",
"                                  T T T W I 1 : : : :                           ",
"                                  W W W W I 1 : 1 1 1                           ",
"                                  T T T T I 1 1 1 1 1                           ",
"                                  P P P P 0 ; - - - -                           ",
"                                  7 7 7 7 4 @ + + + +                           ",
"                                  7 7 7 7 4 @ o O O O                           ",
"                                  7 7 7 7 4 @ o @ @ @                           "
};
