/* XPM */
static char *_0130479f1af41869573464b8cfadeba1QpflR0rDfwq34ey[] = {
/* columns rows colors chars-per-pixel */
"40 40 176 2 ",
"   c #1C1313",
".  c #2B0000",
"X  c #280909",
"o  c #340101",
"O  c #3B0303",
"+  c #3E0807",
"@  c #330C0C",
"#  c #3C0B0B",
"$  c #310F10",
"%  c #231515",
"&  c #2B1414",
"*  c #2E1817",
"=  c #261818",
"-  c #2B1A1A",
";  c #341313",
":  c #3B1313",
">  c #341D1D",
",  c #3B1C1C",
"<  c #34201F",
"1  c #352020",
"2  c #3D2323",
"3  c #440202",
"4  c #4A0202",
"5  c #430D0D",
"6  c #4D0C0C",
"7  c #540303",
"8  c #5A0303",
"9  c #530A0A",
"0  c #5D0A0A",
"q  c #431414",
"w  c #421B1B",
"e  c #4C1C1C",
"r  c #541212",
"t  c #5B1515",
"y  c #531B1B",
"u  c #5D1E1F",
"i  c #630202",
"p  c #6C0202",
"a  c #640B0B",
"s  c #690F0F",
"d  c #740101",
"f  c #7C0000",
"g  c #790808",
"h  c #621313",
"j  c #691212",
"k  c #661A19",
"l  c #6C1A19",
"z  c #721010",
"x  c #741B1C",
"c  c #7E1E1E",
"v  c #451E20",
"b  c #432525",
"n  c #4C2424",
"m  c #452827",
"M  c #452728",
"N  c #4B2728",
"B  c #462929",
"V  c #4B2B2A",
"C  c #512424",
"Z  c #5F2726",
"A  c #542827",
"S  c #532E2D",
"D  c #5C2D2D",
"F  c #54302F",
"G  c #5C312F",
"H  c #553131",
"J  c #5C3333",
"K  c #632625",
"L  c #692324",
"P  c #662528",
"I  c #622D2C",
"U  c #6B2B2B",
"Y  c #7A2221",
"T  c #74292A",
"R  c #7A2C2E",
"E  c #642F30",
"W  c #633534",
"Q  c #6B3536",
"!  c #653837",
"~  c #693937",
"^  c #643739",
"/  c #683538",
"(  c #653A3A",
")  c #6C3C3B",
"_  c #793536",
"`  c #703937",
"'  c #7B3639",
"]  c #723D3D",
"[  c #7D3E3D",
"{  c #74413E",
"}  c #7A403E",
"|  c #6C3F41",
" . c #753E41",
".. c #7D3F42",
"X. c #6E4243",
"o. c #744242",
"O. c #7C4442",
"+. c #7D4847",
"@. c #754648",
"#. c #7A474A",
"$. c #77494A",
"%. c #7D4A4A",
"&. c #820303",
"*. c #8D0101",
"=. c #8C0808",
"-. c #940202",
";. c #9E0101",
":. c #8A1010",
">. c #A00202",
",. c #B10000",
"<. c #8E2B2D",
"1. c #813E3C",
"2. c #A42B2E",
"3. c #AA2C2E",
"4. c #82423F",
"5. c #90403F",
"6. c #824544",
"7. c #8B4744",
"8. c #854946",
"9. c #8A4A47",
"0. c #824448",
"q. c #8D474C",
"w. c #844B49",
"e. c #8C4B4A",
"r. c #984241",
"t. c #924947",
"y. c #92474D",
"u. c #934C4C",
"i. c #9B4D4C",
"p. c #9A514F",
"a. c #804F50",
"s. c #964E50",
"d. c #9B4D51",
"f. c #945152",
"g. c #9A5152",
"h. c #9B5253",
"j. c #9D5152",
"k. c #9F5154",
"l. c #9B565A",
"z. c #A24F4D",
"x. c #A3514E",
"c. c #A24F55",
"v. c #A45253",
"b. c #A65653",
"n. c #A35254",
"m. c #AB5453",
"M. c #AB5957",
"N. c #AE5857",
"B. c #A25258",
"V. c #A55358",
"C. c #A75559",
"Z. c #AC555A",
"A. c #AA565C",
"S. c #AC565C",
"D. c #A05859",
"F. c #AD595B",
"G. c #B1575C",
"H. c #B35959",
"J. c #B4595D",
"K. c #BD625F",
"L. c #A65B60",
"P. c #B35960",
"I. c #B45B61",
"U. c #BB5C63",
"Y. c #B36267",
"T. c #BD6062",
"R. c #B7646A",
"E. c #B8646A",
"W. c #BC676D",
"Q. c #C35F67",
"!. c #C06361",
"~. c #C46662",
"^. c #C3676B",
"/. c #C8616A",
"(. c #C0686E",
"). c #CB6F76",
/* pixels */
"{ { { o.` 0 8 d *.f o . C @.#.A.P.d.O.{ 2 > o.T.T.!.!.b.7.[ # o ; 1 > %   V +.O.",
"{ { { o.` 0 8 d *.f o . n @.#.A.P.d.O.{ 2 > o.T.T.!.!.b.7.1.+ o @ 1 >     V +.O.",
"{ { ! H A 8 8 a x x _ ' 6.9.e.h.h.9.O.] > = ) H.N.j.p.} D D U U Q ) ^ > - S [ [ ",
"{ { F > , 7 8 y H ( W.).I.z.i.8.8.O.o.) -   W m.x.} ] V & , u.v.V.A.d.b > D ' ' ",
") ) V > , 9 8 u ^ ) Y.(.F.i.i.8.8.o.] ! -   G i.t.] ) A > b e.i.d.k.u.V b D ' _ ",
"2 2 -   = N A ..C.B.e.9.O.] { 8.8.W 2 2 > > > - > b m G ~ ~ ] o.] ~ ) u.s.[ I I ",
"1 1 -   % V H 0.P.S.8.O.{ ) ) 8.8.J > 1 1 1 -     1 2 J ] ] ] ] ~ J ~ j.C.6.D I ",
"- - 1 B V  .O.q.h.s.o.{ { o.{ ) ) V - - - - ; # # : : n S J o.o.) J W o.O.W N N ",
"    B o.@.B.A.s.8.6.] ) o.8.O.H F 1         # 8 7 o o ; 1 2 @.%.) J J H H B 1 1 ",
"% % B ) | B.C.u.6.O.) ~ { O.o.S V 2 - > - - q 0 8 3 3 5 , n ) o.( F F S S m , , ",
", , > = 1 d.Z.q.) ( H F H J S - % W n.d.7.7.4.[ _ &.&.f p i ; - = = = 1 1 r p p ",
", w *   - d.S.q.) ( F S S H V %   / J.G.i.i.9.+.1.=.*.&.d p &         > 1 r d d ",
"2 2 ; X $ / ] J b b M b m B b %   W N.m.u.u.6.] ` h a g -.&.&   b W J V B r i i ",
"2 2 : o o > 1 -     > 1 > > >     W m.v.e.e.o.! J 1 1 z ,.;.&   W N.n.J H e 4 4 ",
"B B w + # > 1 -   = b B B B b - = W i.u.6.6.] ~ W 2 1 j ;.=., - / m.i.^ J y 4 4 ",
"6.6.O.] ) 2 1 > > b L.R.I.F.n.) ! S b n 9 9 P O.{ 2 1 > & , y.c.v.m.v.i.i.Q b n ",
"e.e.8.+.{ 2 1 1 > B E.).^.T.J.o.) S > > 4 4 K 8.o.2 1 =   - c.J.Z.m.m.x.x.` b b ",
"6.6.O.o.) 2 > S ) ) f.l.l.n.h.6.O.) J S q 5 y I K j s L / ) d.B.j.i.i.u.u.] V S ",
"o.o.{ { ) 2 > ) D.h.o.) O.8.8.e.e.8.6.{ 2 1 , 5 6 -.;.3.J.G.u.e.u.u.u.8.8.] J J ",
"o.o.o.o.) 1 > ~ h.f.o.) O.8.8.8.8.6.O.{ b 1 q 6 9 *.-.2.J.Z.u.e.e.u.e.O.O.) J J ",
"] ] e.C.s.>   V o.{ ] ] o.+.O.~ ! ) ] ] J J k d d d p <.S.A.9.8.8.8.O.S V V V V ",
"] ] u.F.h.-   m ) ) ] ] o.O.O.! J ~ ] ] W J l f f p p <.J.A.9.8.8.8.O.V b m V V ",
"0.0.] W J > - M J J W W O.h.u.) ! ~ ~ ! J J y 6 6 6 6 K ] ] w.w.+.O.{ S V V V V ",
"h.h.J     1 1 2 V V S S 0.P.Z.o.) ! J J J J 1     > 1 < > 2 $.a.@.| ) J S V B B ",
"9.e.S   & w w n N N S S O.V.d.` / W F F S S 1   % > > > , b X.$.X.) ~ A A C C C ",
"b b : o 3 -.>.&.i a e e n M n 0 0 5 = = = = - > > %   @ 4 3 b 2 b n w # O 0 &.&.",
"> > @ o 4 >.,.*.p i e w , 1 , 7 8 #         & > >     @ 4 4 > > , , , o o 8 *.*.",
"] ] E C u -.;.&.i 8 ; > > 1 > # # e W W ) ] ] ] / > = n T T W W n # # : ; t x x ",
"J.J.s.@.] =.*.d 8 7 %   - 1 >     W m.N.Q./.U.G.B.m > ~ n.j.e.e.K o o , 2 S ^ ^ ",
"G.G.e.X.` :.=.d 7 7 * = 1 B b - - W x.v.U.U.G.V.s.b > ~ B.j.8.6.Z O # , 2 S ~ ~ ",
"i.i.O.W ~ 5.r.U , b ( | e.H.M.9.6.8.9.9.8.w.o.( W 2 > ] J.B.J V J W J 2 > W e.e.",
"i.i.} J W t.i.W > 2 X.@.h.~.K.i.u.e.8.8.+.+.) J J 1 >  .P.V.S b J ) ~ 2 > W u.u.",
"9.9.O.] ] ~ / V > 1 ) o.e.n.n.e.9.6.o.{ ) ) J V N t 0 R u.q.J S V B b - - J e.e.",
"O.O.8.8.O.m 1 > - > ~ ) o.8.8.8.8.o.) ~ J J V 1 w &.*.c ] ) W W 2         S e.9.",
"{ { O.O.{ m 2 > * > J ! ] O.O.8.9.{ W W ! ~ A , w g &.Y o.] J J 2     = = S 6.O.",
"b b m m m m B , o o & = 2 A D d.V.W = > u.B.T 4 3 w , W 9.+.m 1 -   = J ( S 2 b ",
"1 1 2 2 2 m V , o o     > n A d.C.W   - d.Z.R 4 4 , 1 W e.6.b 1 -   = ( ) S > > ",
"F F J W J B m n w w %   N ] ] W W v X @ P U y @ @ - - m W J q # , 2 b H J S V V ",
"] ] O.8.O.V 2 V H V =   J B.y.-   X o o o o X         - 1 > 3 3 y W G V V S J J ",
"] ] O.8.O.V 2 V H V =   J c.q.-   X o o o o X         - 1 , 3 3 y W G V V S J J "
};
