/* XPM */
static char *_2cb5c416e0d4043e6643564d755f046PHIsv6PfhocxhBhw[] = {
/* columns rows colors chars-per-pixel */
"40 40 166 2 ",
"   c #3A2417",
".  c #3C251B",
"X  c #3E281D",
"o  c #3C3A1E",
"O  c #3F3E20",
"+  c #44251D",
"@  c #442B1E",
"#  c #492D1E",
"$  c #47321F",
"%  c #4D321D",
"&  c #55371F",
"*  c #482521",
"=  c #462C20",
"-  c #492E21",
";  c #473221",
":  c #4D3222",
">  c #433A21",
",  c #4D3F24",
"<  c #523624",
"1  c #553926",
"2  c #5A3A26",
"3  c #533729",
"4  c #573A29",
"5  c #5D3D29",
"6  c #543E31",
"7  c #633D26",
"8  c #613E2A",
"9  c #344B1F",
"0  c #364B21",
"q  c #394B21",
"w  c #3D5423",
"e  c #444423",
"r  c #464924",
"t  c #4A4D26",
"y  c #4A452F",
"u  c #4D4F28",
"i  c #524125",
"p  c #5E402C",
"a  c #425525",
"s  c #4D5327",
"d  c #435C26",
"f  c #415728",
"g  c #4D5129",
"h  c #435C28",
"j  c #4A5A2B",
"k  c #4E443D",
"l  c #51433B",
"z  c #5A473A",
"x  c #5B4B3E",
"c  c #64422C",
"v  c #69452E",
"b  c #6D492F",
"n  c #714C2F",
"m  c #664531",
"M  c #6A4630",
"N  c #6D4A31",
"B  c #634938",
"V  c #694E39",
"C  c #734D33",
"Z  c #765034",
"A  c #7C5436",
"S  c #7F5638",
"D  c #456027",
"F  c #466229",
"G  c #486128",
"H  c #486429",
"J  c #48642A",
"K  c #49652A",
"L  c #49652B",
"P  c #49672B",
"I  c #48662A",
"U  c #4A662B",
"Y  c #496729",
"T  c #48632C",
"R  c #4B672C",
"E  c #4A662C",
"W  c #4E672D",
"Q  c #47692C",
"!  c #4A6A29",
"~  c #4B692B",
"^  c #4C682B",
"/  c #4D6B2B",
"(  c #49682C",
")  c #4B6B2C",
"_  c #4B692D",
"`  c #4C682D",
"'  c #4D6B2D",
"]  c #4C6A2C",
"[  c #4E6A2D",
"{  c #4D692E",
"}  c #4F682E",
"|  c #4C6A2E",
" . c #4D6B2F",
".. c #4F6B2F",
"X. c #4F6D2D",
"o. c #4E6C2E",
"O. c #4F6D2F",
"+. c #4F6F2E",
"@. c #536D2C",
"#. c #506E2E",
"$. c #516F2F",
"%. c #506D2D",
"&. c #4E712F",
"*. c #52732C",
"=. c #50702F",
"-. c #53722F",
";. c #53722E",
":. c #50732F",
">. c #54732F",
",. c #56752F",
"<. c #506E30",
"1. c #506E32",
"2. c #4F7230",
"3. c #527231",
"4. c #527630",
"5. c #557430",
"6. c #577730",
"7. c #567531",
"8. c #547830",
"9. c #547A31",
"0. c #587C32",
"q. c #554840",
"w. c #5A4B42",
"e. c gray34",
"r. c #5A5552",
"t. c #575958",
"y. c #5D5C5A",
"u. c #595959",
"i. c #66564C",
"p. c #68574D",
"a. c #6D5A4C",
"s. c #785945",
"d. c #655852",
"f. c #6A5C53",
"g. c #7C6555",
"h. c #7C685D",
"j. c #595E62",
"k. c #5B6063",
"l. c #5C6164",
"z. c #726E6A",
"x. c #747475",
"c. c #77787A",
"v. c #825737",
"b. c #845937",
"n. c #815739",
"m. c #875A3B",
"M. c #845939",
"N. c #855939",
"B. c #895C3B",
"V. c #8F613D",
"C. c #8E603E",
"Z. c #93633E",
"A. c #946541",
"S. c #996742",
"D. c #9B6943",
"F. c #A26D46",
"G. c #A46E48",
"H. c #A67147",
"J. c #A67149",
"K. c #AC744B",
"L. c #B0774C",
"P. c #B3794D",
"I. c #B97C4E",
"U. c #BA7D51",
"Y. c #747B81",
"T. c #797E82",
/* pixels */
"..O.T f f d d f w f ..<.T f f ..O.U d d h d T U T ..O.! U U :.,.T 0 w T U T d d ",
"O.O.T f f d d f w f ..O.H d h ..O.U d h d f G U U ..O.! U U :.7.T 0 w T U T d d ",
"O.O.T a f U U T f f #.:.j e r ..<.T w f T / U D T ..O.U D T #.:.G w w U / T f f ",
"O.#.D w f O.#.T f h :.8.g + ; ..:.d 0 w :.7./ f d ..<.U d d ..<.T a f ..O.T w w ",
"/ O.T a f ) <.T f f 3.8.g @ : T O.h 0 w #.7.! d D ..O.U d d W ..h w f ! O.d w w ",
"d D r = ; #.7.G q w ..&.t @ $ a h e @ ; _ #.T T T D d U #...: : O 0 q d T r = ; ",
"D F e + $ >.0.H q w ..2.t + $ f D e # ; ..:...! _ d d U 4.#.= + o 9 0 d H e + @ ",
"e e y k k u s r O e T Q r @ ; e e > = ; f D a r r f d a u u c v i o > e e , < < ",
"= + l k.e.= + @ @ = a h e @ = @ @ - = = 0 0 o * = a d e + @ N.C.v @ = - @ < 5 5 ",
": # l y.r.: : : : : a f e - - : - : - ; q 0 O - : a f e - : S N.c = : - = < 5 5 ",
"2 2 N M.S v.A C.J.D.: @ 3 2 5 c c c c c : @ : < < : @ l t.r.m c C b.A : @ c N.v.",
"2 1 C B.m.B.N.D.P.J.- @ : 5 2 c v v M c - @ : < < = + k l.u.m c C B.b.# X c N.v.",
"N C N c c N b M.S.A.2 < 2 c c 5 c 2 < 1 - @ < 8 2 1 1 6 k l c 5 b Z C c c A D.S.",
"N.B.c . @ 4 4 b N.S v v c c c 2 2 : @ @ = @ 1 v c c v 1 + @ 2 2 5 c c N.m.D.K.K.",
"N.B.v - : 5 2 C m.v.c m m c c 5 5 1 : : : : 2 M c v b 2 : : 5 5 c c v v.S Z.J.J.",
"J.J.A.S S v c v v N z.x.a.c c c 8 M.J.F.F.G.A.S N.F.J.F.F.D.M.M.C c c v c C N.N.",
"K.K.S.M.M.c 8 c 8 c x.Y.f.7 c c 8 B.P.K.K.P.D.N.C.J.K.K.L.K.B.B.Z c v c c C m.N.",
"S.D.B.b.N.N.N.N.N.N.g.h.s.C C c c C B.m.A.S.S 5 v A.S.C.N.N.C C v 5 c c c N C C ",
"M.M.N.N.m.K.K.K.L.K.b.b.N.B.b.v c c 8 c S N.c . - A N.C 5 c 2 2 2 2 2 c c c c c ",
"v.v.v.v.N.F.J.J.J.F.N.N.M.v.S v c c c c S N.c @ : S N.C c c 5 5 5 5 5 c c c v v ",
"4 1 5 v v N.N.N.N.N.M.N.C c v c v 2 = : 5 p c c c v v c c c c c C N.S : @ c N.v.",
"< < 5 v v N.B.N.N.N.N.m.C c v v M 1 @ = 2 2 5 v c c c c c c c 5 C b.S - . c B.N.",
"5 5 2 1 1 c c v b N C A c < 2 4 1 1 1 1 c c c c c C C C C C N.N.C.S.A.v c b C C ",
"c v < @ @ @ . - < < 8 c < @ @ @ @ 1 v c c v c c c M.N.N.N.B.K.L.K.K.J.B.B.C p c ",
"c c 2 : : : - < 2 2 v N 2 = - : : 2 v c c c c v b N.N.N.S M.G.J.G.G.F.m.m.C c c ",
"c c b.H.D.M.A A.J.F.F.J.M.8 v D.J.A.S S : = C J.F.G.K.A @ < n.B.C 5 m z.x.p.2 5 ",
"M c B.I.K.m.v.S.L.K.K.P.m.2 v J.P.S.N.N.#   A U.K.K.I.A . # M.B.C 1 p x.T.f.2 5 ",
"2 < M S A M.M.C.S.S.S.S.C.N.m.S.D.M.b N l k V N.n.v.N.N < 2 M b c 2 5 i.f.z < < ",
"@ @ - : : v.m.M.v.M.M.S S.P.K.M.M.N < 2 u.j.w.& 1 1 < 5 v v < : 1 2 2 1 2 % @ @ ",
": - : < < S v.v.M.M.M.S S.J.F.B.B.C 5 c r.u.x 2 5 5 5 c c c 1 < 2 5 5 c c 4 : : ",
"S N.c @ - < < 2 5 5 5 5 C B.m.F.J.A.S n.p 5 5 2 5 S N.N 2 5 5 1 N N.N.F.F.F.F.F.",
"v.N.c @ - : : < 2 2 2 1 C B.m.J.L.S.N.N.5 1 2 5 8 n.N.N 2 5 2 1 b N.N.J.K.K.K.K.",
"S.D.C = : 1 < c C N w.w.B b b Z.D.N.b C C C c : 1 C.D.C < 2 N b M.S.S.S.S.S.S.S.",
"K.P.S : < 5 2 n B.M.u.j.q.: 3 S N.b 4 5 b.B.c . : G.P.S @ < M.N.D.L.J.N.v.v.v.v.",
"F.J.A : < 2 2 C B.M.r.u.z < 2 S N.N 2 5 v.B.v - < D.K.A : 4 S S Z.J.F.m.N.b.M.M.",
"1 4 < < < : @ A K.F.M c 4 @ : 5 c < = : F.J.F.F.F.N.m.N 1 2 5 2 C B.N.b.b.Z c v ",
": : : : : @ . C P.F.v c 1 = = 1 2 < @ : G.K.K.K.J.m.B.C 2 5 5 2 C B.N.m.B.A c v ",
"< < < 2 2 c c m.L.G.A C c < 2 i.f.z # < Z.S.S.S.Z.C C c < 1 2 < c C N c c 5 1 1 ",
"< : 5 v v N.N.D.K.J.m.m.Z c N x.T.d.< 2 S M.v.M.v.2 2 < : : < : < 2 2 @ @ @ @ @ ",
"< : 2 c c v.b.S.K.J.N.N.C c m z.c.i.: 4 v.N.N.N.n.5 5 1 : < < : 1 5 2 - - - - - "
};
